<svg width="230" height="92" viewBox="0 0 230 92" fill="none" xmlns="http://www.w3.org/2000/svg">
<rect width="230" height="92" fill="#004D14"/>
<g clip-path="url(#clip0)">
<path d="M34 49.6627C34 48.1323 34.3048 46.7772 34.9145 45.5972C35.5421 44.4171 36.3849 43.5045 37.4428 42.8591C38.5187 42.1954 39.7111 41.8635 41.0201 41.8635C41.9884 41.8635 42.9388 42.0847 43.8712 42.5273C44.8215 42.9513 45.5747 43.5229 46.1305 44.242V36.8853H49.2237V57.3513H46.1305V55.0558C45.6285 55.7933 44.9291 56.4017 44.0326 56.8811C43.1539 57.3605 42.1408 57.6002 40.9932 57.6002C39.7022 57.6002 38.5187 57.2683 37.4428 56.6046C36.3849 55.9224 35.5421 54.982 34.9145 53.7836C34.3048 52.5667 34 51.193 34 49.6627ZM46.1305 49.718C46.1305 48.667 45.9154 47.7544 45.485 46.98C45.0726 46.2056 44.5257 45.6156 43.8443 45.21C43.1629 44.8043 42.4277 44.6015 41.6387 44.6015C40.8498 44.6015 40.1146 44.8043 39.4332 45.21C38.7518 45.5972 38.1959 46.1779 37.7656 46.9523C37.3531 47.7083 37.1469 48.6117 37.1469 49.6627C37.1469 50.7136 37.3531 51.6355 37.7656 52.4284C38.1959 53.2212 38.7518 53.8296 39.4332 54.2537C40.1325 54.6594 40.8677 54.8622 41.6387 54.8622C42.4277 54.8622 43.1629 54.6594 43.8443 54.2537C44.5257 53.8481 45.0726 53.2581 45.485 52.4837C45.9154 51.6909 46.1305 50.769 46.1305 49.718Z" fill="white"/>
<path d="M66.834 49.3583C66.834 49.9298 66.7982 50.4461 66.7265 50.907H55.4028C55.4925 52.1239 55.9318 53.1012 56.7208 53.8387C57.5098 54.5762 58.4781 54.9449 59.6257 54.9449C61.2753 54.9449 62.4409 54.2351 63.1223 52.8154H66.4306C65.9823 54.2166 65.1664 55.369 63.983 56.2725C62.8174 57.1575 61.365 57.6 59.6257 57.6C58.2091 57.6 56.936 57.2773 55.8063 56.632C54.6945 55.9682 53.8159 55.0464 53.1704 53.8663C52.5428 52.6679 52.229 51.285 52.229 49.7178C52.229 48.1506 52.5338 46.777 53.1435 45.597C53.7711 44.3985 54.6408 43.4766 55.7525 42.8313C56.8822 42.186 58.1732 41.8633 59.6257 41.8633C61.0243 41.8633 62.2705 42.1767 63.3643 42.8036C64.4581 43.4305 65.3099 44.3155 65.9195 45.4587C66.5292 46.5834 66.834 47.8832 66.834 49.3583ZM63.6333 48.3626C63.6154 47.201 63.2119 46.2699 62.4229 45.5693C61.634 44.8687 60.6567 44.5183 59.4912 44.5183C58.4332 44.5183 57.5277 44.8687 56.7746 45.5693C56.0215 46.2515 55.5732 47.1826 55.4297 48.3626H63.6333Z" fill="white"/>
<path d="M75.5807 54.5302L79.7766 42.1123H83.0311L77.3828 57.3512H73.7248L68.1033 42.1123H71.3848L75.5807 54.5302Z" fill="white"/>
<path d="M86.5861 57.5447C86.0302 57.5447 85.564 57.3511 85.1874 56.9639C84.8109 56.5767 84.6226 56.0973 84.6226 55.5257C84.6226 54.9542 84.8109 54.4748 85.1874 54.0876C85.564 53.7004 86.0302 53.5068 86.5861 53.5068C87.124 53.5068 87.5813 53.7004 87.9578 54.0876C88.3344 54.4748 88.5226 54.9542 88.5226 55.5257C88.5226 56.0973 88.3344 56.5767 87.9578 56.9639C87.5813 57.3511 87.124 57.5447 86.5861 57.5447Z" fill="white"/>
<path d="M98.0497 44.6842H95.3063V57.3511H92.2131V44.6842H90.4648V42.1122H92.2131V41.0335C92.2131 39.2819 92.6614 38.0097 93.558 37.2169C94.4725 36.4056 95.898 36 97.8346 36V38.6274C96.9021 38.6274 96.2477 38.8118 95.8711 39.1805C95.4945 39.5309 95.3063 40.1485 95.3063 41.0335V42.1122H98.0497V44.6842Z" fill="white"/>
<path d="M102.327 40.0931C101.771 40.0931 101.305 39.8995 100.929 39.5123C100.552 39.1251 100.364 38.6457 100.364 38.0741C100.364 37.5026 100.552 37.0232 100.929 36.636C101.305 36.2488 101.771 36.0552 102.327 36.0552C102.865 36.0552 103.322 36.2488 103.699 36.636C104.076 37.0232 104.264 37.5026 104.264 38.0741C104.264 38.6457 104.076 39.1251 103.699 39.5123C103.322 39.8995 102.865 40.0931 102.327 40.0931ZM103.833 42.112V57.351H100.767V42.112H103.833Z" fill="white"/>
<path d="M115.337 41.8633C116.502 41.8633 117.542 42.1122 118.457 42.61C119.389 43.1078 120.115 43.8454 120.635 44.8226C121.155 45.7998 121.415 46.9798 121.415 48.3626V57.3511H118.376V48.8328C118.376 47.4684 118.044 46.4266 117.381 45.7076C116.717 44.9701 115.812 44.6013 114.664 44.6013C113.517 44.6013 112.602 44.9701 111.921 45.7076C111.257 46.4266 110.926 47.4684 110.926 48.8328V57.3511H107.859V42.1122H110.926V43.8546C111.428 43.2277 112.064 42.7391 112.835 42.3888C113.624 42.0384 114.458 41.8633 115.337 41.8633Z" fill="white"/>
<path d="M124.304 49.6625C124.304 48.1321 124.609 46.777 125.219 45.597C125.847 44.4169 126.689 43.5043 127.747 42.8589C128.823 42.1952 130.007 41.8633 131.298 41.8633C132.463 41.8633 133.476 42.103 134.337 42.5824C135.216 43.0433 135.915 43.6241 136.435 44.3247V42.1122H139.528V57.3511H136.435V55.0832C135.915 55.8023 135.207 56.4015 134.31 56.8809C133.414 57.3603 132.391 57.6 131.244 57.6C129.971 57.6 128.805 57.2681 127.747 56.6044C126.689 55.9222 125.847 54.9818 125.219 53.7834C124.609 52.5665 124.304 51.1928 124.304 49.6625ZM136.435 49.7178C136.435 48.6668 136.22 47.7542 135.789 46.9798C135.377 46.2054 134.83 45.6154 134.149 45.2098C133.467 44.8041 132.732 44.6013 131.943 44.6013C131.154 44.6013 130.419 44.8041 129.738 45.2098C129.056 45.597 128.5 46.1777 128.07 46.9521C127.658 47.7081 127.451 48.6115 127.451 49.6625C127.451 50.7134 127.658 51.6353 128.07 52.4282C128.5 53.221 129.056 53.8294 129.738 54.2535C130.437 54.6592 131.172 54.862 131.943 54.862C132.732 54.862 133.467 54.6592 134.149 54.2535C134.83 53.8479 135.377 53.2579 135.789 52.4835C136.22 51.6907 136.435 50.7688 136.435 49.7178Z" fill="white"/>
<path d="M151.033 41.8633C152.198 41.8633 153.238 42.1122 154.153 42.61C155.085 43.1078 155.812 43.8454 156.332 44.8226C156.852 45.7998 157.112 46.9798 157.112 48.3626V57.3511H154.072V48.8328C154.072 47.4684 153.74 46.4266 153.077 45.7076C152.414 44.9701 151.508 44.6013 150.36 44.6013C149.213 44.6013 148.298 44.9701 147.617 45.7076C146.953 46.4266 146.622 47.4684 146.622 48.8328V57.3511H143.556V42.1122H146.622V43.8546C147.124 43.2277 147.76 42.7391 148.531 42.3888C149.32 42.0384 150.154 41.8633 151.033 41.8633Z" fill="white"/>
<path d="M160.001 49.7178C160.001 48.1506 160.306 46.777 160.915 45.597C161.543 44.3985 162.403 43.4766 163.497 42.8313C164.591 42.186 165.846 41.8633 167.263 41.8633C169.056 41.8633 170.535 42.3058 171.701 43.1908C172.884 44.0574 173.682 45.302 174.095 46.9245H170.786C170.517 46.1685 170.087 45.5785 169.495 45.1545C168.904 44.7304 168.159 44.5183 167.263 44.5183C166.008 44.5183 165.004 44.9793 164.25 45.9012C163.515 46.8046 163.148 48.0768 163.148 49.7178C163.148 51.3588 163.515 52.6402 164.25 53.5621C165.004 54.484 166.008 54.9449 167.263 54.9449C169.038 54.9449 170.213 54.1429 170.786 52.5388H174.095C173.664 54.0876 172.857 55.3229 171.674 56.2448C170.49 57.1483 169.02 57.6 167.263 57.6C165.846 57.6 164.591 57.2773 163.497 56.632C162.403 55.9682 161.543 55.0464 160.915 53.8663C160.306 52.6679 160.001 51.285 160.001 49.7178Z" fill="white"/>
<path d="M190.733 49.3583C190.733 49.9298 190.698 50.4461 190.626 50.907H179.302C179.392 52.1239 179.831 53.1012 180.62 53.8387C181.409 54.5762 182.377 54.9449 183.525 54.9449C185.175 54.9449 186.34 54.2351 187.022 52.8154H190.33C189.882 54.2166 189.066 55.369 187.882 56.2725C186.717 57.1575 185.264 57.6 183.525 57.6C182.108 57.6 180.835 57.2773 179.706 56.632C178.594 55.9682 177.715 55.0464 177.07 53.8663C176.442 52.6679 176.128 51.285 176.128 49.7178C176.128 48.1506 176.433 46.777 177.043 45.597C177.67 44.3985 178.54 43.4766 179.652 42.8313C180.782 42.186 182.073 41.8633 183.525 41.8633C184.924 41.8633 186.17 42.1767 187.264 42.8036C188.358 43.4305 189.209 44.3155 189.819 45.4587C190.429 46.5834 190.733 47.8832 190.733 49.3583ZM187.533 48.3626C187.515 47.201 187.111 46.2699 186.322 45.5693C185.533 44.8687 184.556 44.5183 183.391 44.5183C182.333 44.5183 181.427 44.8687 180.674 45.5693C179.921 46.2515 179.473 47.1826 179.329 48.3626H187.533Z" fill="white"/>
<path d="M86.5865 57.5447C86.0307 57.5447 85.5644 57.3511 85.1879 56.9639C84.8113 56.5767 84.623 56.0974 84.623 55.5258C84.623 54.9542 84.8113 54.4748 85.1879 54.0876C85.5644 53.7004 86.0307 53.5068 86.5865 53.5068C87.1245 53.5068 87.5817 53.7004 87.9583 54.0876C88.3348 54.4748 88.5231 54.9542 88.5231 55.5258C88.5231 56.0974 88.3348 56.5767 87.9583 56.9639C87.5817 57.3511 87.1245 57.5447 86.5865 57.5447Z" fill="#49AA26"/>
<path d="M205.999 53.325C205.999 54.1057 205.773 54.8396 205.321 55.5266C204.886 56.2136 204.235 56.7914 203.366 57.2598C202.515 57.7282 201.502 58.0093 200.326 58.103V60.0001H198.561V58.103C196.86 57.9624 195.485 57.5018 194.435 56.7211C193.385 55.9404 192.86 54.9099 192.86 53.6295H196.172C196.227 54.2384 196.453 54.7459 196.851 55.1519C197.249 55.5422 197.819 55.7921 198.561 55.9014V50.7487C197.349 50.4832 196.362 50.2178 195.602 49.9523C194.842 49.6713 194.191 49.2341 193.648 48.6407C193.123 48.0474 192.86 47.2355 192.86 46.2049C192.86 44.9089 193.385 43.8394 194.435 42.9962C195.485 42.1374 196.86 41.6378 198.561 41.4972V39.6001H200.326V41.4972C201.918 41.6221 203.194 42.0593 204.153 42.8088C205.131 43.5427 205.683 44.5576 205.809 45.8536H202.497C202.443 45.3696 202.226 44.9402 201.846 44.5654C201.466 44.1751 200.959 43.9096 200.326 43.7691V48.8281C201.538 49.0779 202.524 49.3434 203.285 49.6244C204.045 49.8899 204.687 50.3193 205.212 50.9126C205.737 51.4903 205.999 52.2945 205.999 53.325ZM196.009 46.0644C196.009 46.7046 196.227 47.2042 196.661 47.5634C197.113 47.9225 197.747 48.2113 198.561 48.4299V43.6988C197.783 43.7769 197.159 44.0189 196.688 44.4249C196.236 44.8309 196.009 45.3774 196.009 46.0644ZM200.326 55.9014C201.122 55.7921 201.746 55.5188 202.199 55.0816C202.651 54.6288 202.877 54.0901 202.877 53.4655C202.877 52.841 202.651 52.3569 202.199 52.0134C201.764 51.6543 201.14 51.3654 200.326 51.1468V55.9014Z" fill="#49AA26"/>
</g>
<defs>
<clipPath id="clip0">
<rect width="172" height="24" fill="white" transform="translate(34 36)"/>
</clipPath>
</defs>
</svg>
